<svg xmlns="http://www.w3.org/2000/svg">
    <!-- Иконка переключения темы -->
    <symbol viewBox="0 0 20 20" id="icon-toggle-theme" fill="none">
        <path d="M10.0002 14.1667C12.3013 14.1667 14.1668 12.3012 14.1668 9.99999C14.1668 7.69881 12.3013 5.83333 10.0002 5.83333C7.69898 5.83333 5.8335 7.69881 5.8335 9.99999C5.8335 12.3012 7.69898 14.1667 10.0002 14.1667Z" stroke="currentColor" stroke-width="1.66667"/>
        <path d="M10 0.833328V2.49999" stroke="currentColor" stroke-width="1.66667"/>
        <path d="M10 17.5V19.1667" stroke="currentColor" stroke-width="1.66667"/>
        <path d="M3.5166 3.51666L4.69993 4.7" stroke="currentColor" stroke-width="1.66667"/>
    </symbol>

    <!-- Иконка бургера -->
    <symbol viewBox="0 0 24 24" id="icon-burger" fill="none">
        <path d="M3 12H21" stroke="currentColor" stroke-width="2"/>
        <path d="M3 6H21" stroke="currentColor" stroke-width="2"/>
        <path d="M3 18H21" stroke="currentColor" stroke-width="2"/>
    </symbol>

    <!-- Иконка фильтра -->
    <symbol viewBox="0 0 18 18" id="icon-filter" fill="none">
        <path d="M3 15.75V10.5" stroke="#0891B2" stroke-width="1.5"/>
        <path d="M3 7.5V2.25" stroke="#0891B2" stroke-width="1.5"/>
        <path d="M9 15.75V9" stroke="#0891B2" stroke-width="1.5"/>
        <path d="M9 6V2.25" stroke="#0891B2" stroke-width="1.5"/>
        <path d="M15 15.75V12" stroke="#0891B2" stroke-width="1.5"/>
        <path d="M15 9V2.25" stroke="#0891B2" stroke-width="1.5"/>
    </symbol>
    <symbol viewBox="0 0 14 14" id="icon-search" fill="none">
        <path d="M6.41667 11.0833C8.994 11.0833 11.0833 8.994 11.0833 6.41667C11.0833 3.83934 8.994 1.75 6.41667 1.75C3.83934 1.75 1.75 3.83934 1.75 6.41667C1.75 8.994 3.83934 11.0833 6.41667 11.0833Z" stroke="currentColor" stroke-width="1.16667"/>
        <path d="M12.2504 12.25C12.2504 12.25 10.7038 10.7035 9.71289 9.71252" stroke="currentColor" stroke-width="1.16667"/>
    </symbol>
</svg>