<svg width="17" height="17" viewBox="0 0 17 17" fill="none" xmlns="http://www.w3.org/2000/svg">
    <path d="M15.8012 9.15931C15.6701 10.5778 15.1377 11.9296 14.2664 13.0566C13.395 14.1836 12.2208 15.0391 10.8809 15.5231C9.54112 16.007 8.09117 16.0994 6.70077 15.7894C5.31037 15.4794 4.03702 14.7798 3.02971 13.7725C2.0224 12.7651 1.3228 11.4918 1.01278 10.1014C0.70275 8.71099 0.795117 7.26105 1.27907 5.92122C1.76302 4.5814 2.61855 3.40711 3.74553 2.53577C4.87252 1.66443 6.22435 1.13206 7.64285 1.00098C6.81236 2.12453 6.41273 3.50885 6.51663 4.90215C6.62053 6.29546 7.22107 7.60519 8.20902 8.59314C9.19697 9.58109 10.5067 10.1816 11.9 10.2855C13.2933 10.3894 14.6776 9.9898 15.8012 9.15931Z" stroke="currentColor" stroke-width="1.66667"/>
</svg>